<svg xmlns="http://www.w3.org/2000/svg" width="512" height="506.843" viewBox="0 0 512 506.843">
  <g id="bus-stop" transform="translate(0 -2.579)">
    <g id="Group_1" data-name="Group 1">
      <path id="Path_1" data-name="Path 1" d="M367.877,474.548H144.124a7.535,7.535,0,1,1,0-15.07H367.876a7.535,7.535,0,0,1,0,15.07Z" fill="#2b4d66"/>
    </g>
    <path id="Path_2" data-name="Path 2" d="M494.992,110.983H17.009a8.233,8.233,0,0,1-8.233-8.233V62.56a8.225,8.225,0,0,1,4.942-7.552Q256-49.849,498.283,55.008a8.227,8.227,0,0,1,4.942,7.552v40.19A8.233,8.233,0,0,1,494.992,110.983Z" fill="#029bc5"/>
    <path id="Path_3" data-name="Path 3" d="M498.283,55.007q-10.154-4.4-20.307-8.409a12.562,12.562,0,0,1,.6,3.809v50.277c0,5.688-3.686,10.3-8.233,10.3h24.646a8.233,8.233,0,0,0,8.233-8.233V62.561A8.228,8.228,0,0,0,498.283,55.007Z" fill="#028eb4"/>
    <path id="Path_4" data-name="Path 4" d="M52.6,148.835H459.4V337.114H52.6Z" fill="#f9f6f9"/>
    <path id="Path_5" data-name="Path 5" d="M436.707,148.835H459.4V337.113h-22.69Z" fill="#dddaec"/>
    <path id="Path_6" data-name="Path 6" d="M239.286,337.114h60.382l84.191-188.279H323.477Z" fill="#029bc5"/>
    <path id="Path_7" data-name="Path 7" d="M299.668,337.114h38.345L422.2,148.835H383.859Z" fill="#028eb4"/>
    <circle id="Ellipse_1" data-name="Ellipse 1" cx="23.93" cy="23.93" r="23.93" transform="translate(78.983 173.022)" fill="#ffd064"/>
    <path id="Path_8" data-name="Path 8" d="M102.913,173.022a23.9,23.9,0,0,0-7.96,1.361,23.932,23.932,0,0,1,0,45.138,23.931,23.931,0,1,0,7.96-46.5Z" fill="#ebb044"/>
    <path id="Path_9" data-name="Path 9" d="M25.366,110.983H52.6v390.9H25.366Z" fill="#365e7d"/>
    <path id="Path_10" data-name="Path 10" d="M25.366,110.983H52.6v20.03H25.366Z" fill="#2b4d66"/>
    <g id="Group_2" data-name="Group 2">
      <path id="Path_11" data-name="Path 11" d="M70.435,509.422H7.535a7.535,7.535,0,0,1,0-15.07h62.9a7.535,7.535,0,1,1,0,15.07Z" fill="#2b4d66"/>
    </g>
    <path id="Path_12" data-name="Path 12" d="M459.4,110.983h27.239v390.9H459.4Z" transform="translate(946.032 612.87) rotate(180)" fill="#365e7d"/>
    <path id="Path_13" data-name="Path 13" d="M459.4,110.983h27.238v20.03H459.4Z" fill="#2b4d66"/>
    <g id="Group_3" data-name="Group 3">
      <path id="Path_14" data-name="Path 14" d="M504.465,509.422h-62.9a7.535,7.535,0,0,1,0-15.07h62.9a7.535,7.535,0,1,1,0,15.07Z" fill="#2b4d66"/>
    </g>
    <path id="Path_15" data-name="Path 15" d="M413.478,432.138H98.523a3.587,3.587,0,0,1-3.587-3.587V422.68a31.9,31.9,0,0,1,31.9-31.9H385.164a31.9,31.9,0,0,1,31.9,31.9v5.871A3.587,3.587,0,0,1,413.478,432.138Z" fill="#81a7c6"/>
    <path id="Path_16" data-name="Path 16" d="M385.164,390.779h-26.69a31.9,31.9,0,0,1,31.9,31.9v9.458h23.1a3.587,3.587,0,0,0,3.587-3.587V422.68A31.9,31.9,0,0,0,385.164,390.779Z" fill="#5c90b9"/>
    <path id="Path_17" data-name="Path 17" d="M150.3,501.887H125.933a4.308,4.308,0,0,1-4.308-4.308V432.138H154.6v65.441A4.308,4.308,0,0,1,150.3,501.887Z" fill="#365e7d"/>
    <path id="Path_18" data-name="Path 18" d="M121.625,432.138H154.6V450.9H121.625Z" fill="#2b4d66"/>
    <path id="Path_19" data-name="Path 19" d="M386.068,501.887H361.7a4.308,4.308,0,0,1-4.308-4.308V432.138h32.979v65.441a4.309,4.309,0,0,1-4.308,4.308Z" fill="#365e7d"/>
    <path id="Path_20" data-name="Path 20" d="M357.4,432.138h32.979V450.9H357.4Z" fill="#2b4d66"/>
    <g id="Group_11" data-name="Group 11">
      <g id="Group_4" data-name="Group 4">
        <path id="Path_21" data-name="Path 21" d="M165.06,188.736H149.906a7.535,7.535,0,0,1,0-15.07H165.06a7.535,7.535,0,0,1,0,15.07Z" fill="#2b4d66"/>
      </g>
      <g id="Group_5" data-name="Group 5">
        <path id="Path_22" data-name="Path 22" d="M259.766,213.445H149.906a7.535,7.535,0,1,1,0-15.07h109.86a7.535,7.535,0,0,1,0,15.07Z" fill="#2b4d66"/>
      </g>
      <g id="Group_6" data-name="Group 6">
        <path id="Path_23" data-name="Path 23" d="M259.766,238.155H149.906a7.535,7.535,0,1,1,0-15.07h109.86a7.535,7.535,0,0,1,0,15.07Z" fill="#2b4d66"/>
      </g>
      <g id="Group_7" data-name="Group 7">
        <path id="Path_24" data-name="Path 24" d="M238.721,262.865H84.664a7.535,7.535,0,0,1,0-15.07H238.721a7.535,7.535,0,1,1,0,15.07Z" fill="#2b4d66"/>
      </g>
      <g id="Group_8" data-name="Group 8">
        <path id="Path_25" data-name="Path 25" d="M228.2,287.574H84.664a7.535,7.535,0,0,1,0-15.07H228.2a7.535,7.535,0,0,1,0,15.07Z" fill="#2b4d66"/>
      </g>
      <g id="Group_9" data-name="Group 9">
        <path id="Path_26" data-name="Path 26" d="M217.674,312.284H84.664a7.535,7.535,0,1,1,0-15.07h133.01a7.535,7.535,0,0,1,0,15.07Z" fill="#2b4d66"/>
      </g>
      <g id="Group_10" data-name="Group 10">
        <path id="Path_27" data-name="Path 27" d="M278.166,188.736H189.352a7.535,7.535,0,0,1,0-15.07h88.814a7.535,7.535,0,1,1,0,15.07Z" fill="#2b4d66"/>
      </g>
    </g>
    <path id="Path_28" data-name="Path 28" d="M345.649,110.983h-179.3v-33.3a17.933,17.933,0,0,1,17.933-17.933h143.43a17.933,17.933,0,0,1,17.933,17.933v33.3Z" fill="#365e7d"/>
    <path id="Path_29" data-name="Path 29" d="M327.715,59.753H306.526a17.933,17.933,0,0,1,17.933,17.933v33.3h21.189v-33.3a17.931,17.931,0,0,0-17.933-17.933Z" fill="#2b4d66"/>
    <g id="Group_12" data-name="Group 12">
      <path id="Path_30" data-name="Path 30" d="M286.961,92.9h-61.92a7.535,7.535,0,1,1,0-15.07h61.92a7.535,7.535,0,0,1,0,15.07Z" fill="#f9f6f9"/>
    </g>
  </g>
</svg>
