<svg id="Capa_1" enable-background="new 0 0 362.146 362.146" height="512" viewBox="0 0 362.146 362.146" width="512" xmlns="http://www.w3.org/2000/svg"><g><g fill="#3a556a"><path d="m258.706 306.479h30.371c3.592 0 6.505 2.912 6.505 6.505v42.658c0 3.592-2.912 6.505-6.505 6.505h-30.371c-3.592 0-6.505-2.912-6.505-6.505v-42.658c.001-3.593 2.913-6.505 6.505-6.505z"/><path d="m73.068 306.479h30.371c3.592 0 6.505 2.912 6.505 6.505v42.658c0 3.592-2.912 6.505-6.505 6.505h-30.371c-3.592 0-6.505-2.912-6.505-6.505v-42.658c.001-3.593 2.913-6.505 6.505-6.505z"/><path d="m340.347 110.527h-5.095v-65.119c0-1.093-.886-1.979-1.979-1.979h-41.748v-5.1h41.733c3.906.005 7.071 3.172 7.073 7.078z"/><path d="m323.287 76.877h28.996c1.754 0 3.176 1.422 3.176 3.176v74.236c0 1.754-1.422 3.176-3.176 3.176h-28.996c-1.754 0-3.176-1.422-3.176-3.176v-74.237c0-1.753 1.422-3.175 3.176-3.175z"/><path d="m21.799 110.527h5.095v-65.119c0-1.093.886-1.979 1.979-1.979h41.747v-5.1h-41.733c-3.906.005-7.071 3.172-7.073 7.078z"/><path d="m9.863 76.877h28.996c1.754 0 3.176 1.422 3.176 3.176v74.236c0 1.754-1.422 3.176-3.176 3.176h-28.996c-1.754 0-3.176-1.422-3.176-3.176v-74.237c.001-1.753 1.422-3.175 3.176-3.175z"/></g><path d="m72.766 0h216.608c12.662 0 22.927 10.265 22.927 22.927v291.368c0 12.662-10.265 22.927-22.927 22.927h-216.608c-12.662 0-22.927-10.265-22.927-22.927v-291.368c.001-12.662 10.265-22.927 22.927-22.927z" fill="#029bc5"/><path d="m281.796 59.05h-202.619c-5.14.003-9.306 4.169-9.309 9.309v136.026c.028 9.045 6.648 16.717 15.591 18.069 62.963 9.863 127.078 9.863 190.041 0 8.943-1.352 15.563-9.025 15.591-18.069v-136.026c-.003-5.134-4.16-9.298-9.295-9.309z" fill="#3a556a"/><path d="m291.115 177.328v27.072c-.044 9.035-6.662 16.692-15.596 18.044-62.963 9.838-127.072 9.838-190.036 0-8.942-1.337-15.568-9.003-15.596-18.044v-27.072c.025 9.043 6.652 16.712 15.596 18.049 62.959 9.888 127.076 9.888 190.036 0 8.935-1.354 15.552-9.012 15.596-18.049z" fill="#2f4859"/><path d="m134.033 19.296h94.08c3.12 0 5.649 2.529 5.649 5.649v10.289c0 3.12-2.529 5.649-5.649 5.649h-94.08c-3.12 0-5.649-2.529-5.649-5.649v-10.289c0-3.12 2.529-5.649 5.649-5.649z" fill="#e1e6e9"/><path d="m125.352 257.158h111.442v5.105h-111.442z" fill="#048baa"/><path d="m136.214 270.771h89.723v5.105h-89.723z" fill="#048baa"/><path d="m143.025 284.383h76.09v5.105h-76.09z" fill="#048baa"/><path d="m162.459 298.001h37.222v5.105h-37.222z" fill="#048baa"/><path d="m299.93 273.259c-.04-4.83-3.988-8.713-8.817-8.673-.919.008-1.831.16-2.703.452-18.613 6.76-33.5 21.075-40.986 39.408-1.904 4.46.167 9.618 4.627 11.522 1.097.468 2.278.708 3.47.705h36.109c4.849 0 8.78-3.93 8.781-8.779 0-.042 0-.083-.001-.125z" fill="#ebf0f3"/><circle cx="272.161" cy="301.112" fill="#d5d6db" r="10.373"/><circle cx="285.387" cy="284.428" fill="#d5d6db" r="6.312"/><path d="m62.216 273.259c.035-4.83 3.979-8.716 8.809-8.681.931.007 1.854.162 2.736.46 18.613 6.76 33.5 21.075 40.986 39.408 1.904 4.46-.167 9.618-4.627 11.522-1.097.468-2.278.708-3.47.705h-36.109c-4.849 0-8.78-3.93-8.781-8.779 0-.042 0-.083.001-.125z" fill="#ebf0f3"/><circle cx="89.985" cy="301.112" fill="#d5d6db" r="10.373"/><circle cx="76.758" cy="284.428" fill="#d5d6db" r="6.312"/></g></svg>